<svg width="256" height="65" viewBox="0 0 256 65" fill="none" xmlns="http://www.w3.org/2000/svg">
<path d="M91.684 42V16.38H81.1V8.4H107.308C108.946 8.4 110.248 9.744 110.248 11.34V16.38H99.664V42H91.684ZM131.078 41.874C123.308 41.874 117.176 35.28 117.176 27.51V8.4H122.216C123.812 8.4 125.114 9.702 125.114 11.34V27.594C125.114 30.954 127.718 33.81 131.078 33.936C134.606 34.062 137.504 31.248 137.504 27.72V8.4H142.544C144.182 8.4 145.484 9.702 145.484 11.34V27.72C145.484 35.616 139.016 41.874 131.078 41.874ZM167.039 42C165.569 42 164.309 41.076 163.847 39.774L152.423 8.4H158.471C159.605 8.4 160.655 9.114 161.033 10.206L167.039 26.628L173.003 10.206C173.423 9.114 174.431 8.4 175.607 8.4H181.613L170.231 39.732L170.189 39.774C169.727 41.076 168.467 42 167.039 42ZM202.198 8.4C211.48 8.4 218.998 15.918 218.998 25.2C218.998 34.482 211.48 42 202.198 42C192.916 42 185.398 34.482 185.398 25.2C185.398 15.918 192.916 8.4 202.198 8.4ZM202.198 33.978C207.028 33.978 210.976 30.072 210.976 25.2C210.976 20.37 207.028 16.422 202.198 16.422C197.326 16.422 193.42 20.37 193.42 25.2C193.42 30.072 197.326 33.978 202.198 33.978ZM241.274 42C232.454 42 224.894 34.692 224.894 25.914C224.894 16.296 232.202 8.4 241.82 8.4C246.524 8.4 250.598 10.164 253.538 13.356L249.716 17.178C248.834 18.06 247.406 18.354 246.23 17.472C244.76 16.884 243.29 16.296 241.526 16.296C236.864 16.296 233.084 20.076 233.084 24.78C233.084 29.61 236.57 34.146 241.82 34.146C243.29 34.146 245.054 33.516 246.23 32.928C247.406 32.046 248.834 32.34 249.716 33.222L253.538 37.044C250.598 40.278 246.23 42 241.274 42Z" fill="#121212"/>
<path d="M84.4688 54.8418H85.416V58.9775C85.416 59.6969 85.3346 60.2682 85.1719 60.6914C85.0091 61.1146 84.7145 61.4596 84.2881 61.7266C83.8649 61.9902 83.3083 62.1221 82.6182 62.1221C81.9476 62.1221 81.3991 62.0065 80.9727 61.7754C80.5462 61.5443 80.2419 61.2106 80.0596 60.7744C79.8773 60.335 79.7861 59.736 79.7861 58.9775V54.8418H80.7334V58.9727C80.7334 59.5944 80.7904 60.0534 80.9043 60.3496C81.0215 60.6426 81.2201 60.8688 81.5 61.0283C81.7832 61.1878 82.1283 61.2676 82.5352 61.2676C83.2318 61.2676 83.7282 61.1097 84.0244 60.7939C84.3206 60.4782 84.4688 59.8711 84.4688 58.9727V54.8418ZM86.8857 62V56.8145H87.6768V57.5518C88.0576 56.9821 88.6077 56.6973 89.3271 56.6973C89.6396 56.6973 89.9261 56.7542 90.1865 56.8682C90.4502 56.9788 90.6471 57.1253 90.7773 57.3076C90.9076 57.4899 90.9987 57.7064 91.0508 57.957C91.0833 58.1198 91.0996 58.4046 91.0996 58.8115V62H90.2207V58.8457C90.2207 58.4876 90.1865 58.2207 90.1182 58.0449C90.0498 57.8659 89.9277 57.7243 89.752 57.6201C89.5794 57.5127 89.376 57.459 89.1416 57.459C88.7673 57.459 88.4434 57.5778 88.1699 57.8154C87.8997 58.0531 87.7646 58.5039 87.7646 59.168V62H86.8857ZM92.4326 62V54.8418H93.3115V62H92.4326ZM98.2285 60.3301L99.1367 60.4424C98.9935 60.973 98.7282 61.3848 98.3408 61.6777C97.9535 61.9707 97.4587 62.1172 96.8564 62.1172C96.098 62.1172 95.4958 61.8844 95.0498 61.4189C94.6071 60.9502 94.3857 60.2943 94.3857 59.4512C94.3857 58.5788 94.6104 57.9017 95.0596 57.4199C95.5088 56.9382 96.0915 56.6973 96.8076 56.6973C97.501 56.6973 98.0674 56.9333 98.5068 57.4053C98.9463 57.8773 99.166 58.5413 99.166 59.3975C99.166 59.4495 99.1644 59.5277 99.1611 59.6318H95.2939C95.3265 60.2015 95.4876 60.6377 95.7773 60.9404C96.0671 61.2432 96.4284 61.3945 96.8613 61.3945C97.1836 61.3945 97.4587 61.3099 97.6865 61.1406C97.9144 60.9714 98.0951 60.7012 98.2285 60.3301ZM95.3428 58.9092H98.2383C98.1992 58.473 98.0885 58.1458 97.9062 57.9277C97.6263 57.5892 97.2633 57.4199 96.8174 57.4199C96.4137 57.4199 96.0736 57.555 95.7969 57.8252C95.5234 58.0954 95.3721 58.4567 95.3428 58.9092ZM103.629 61.3604C103.303 61.637 102.989 61.8324 102.687 61.9463C102.387 62.0602 102.065 62.1172 101.72 62.1172C101.15 62.1172 100.712 61.9788 100.406 61.7021C100.1 61.4222 99.9473 61.0658 99.9473 60.6328C99.9473 60.3789 100.004 60.1478 100.118 59.9395C100.235 59.7279 100.387 59.5586 100.572 59.4316C100.761 59.3047 100.973 59.2087 101.207 59.1436C101.38 59.098 101.64 59.054 101.988 59.0117C102.698 58.9271 103.22 58.8262 103.556 58.709C103.559 58.5885 103.561 58.512 103.561 58.4795C103.561 58.1214 103.478 57.8691 103.312 57.7227C103.087 57.5241 102.753 57.4248 102.311 57.4248C101.897 57.4248 101.591 57.498 101.393 57.6445C101.197 57.7878 101.052 58.0433 100.958 58.4111L100.099 58.2939C100.177 57.9261 100.305 57.6299 100.484 57.4053C100.663 57.1774 100.922 57.0033 101.261 56.8828C101.599 56.7591 101.992 56.6973 102.438 56.6973C102.88 56.6973 103.24 56.7493 103.517 56.8535C103.793 56.9577 103.997 57.0895 104.127 57.249C104.257 57.4053 104.348 57.6038 104.4 57.8447C104.43 57.9945 104.444 58.2646 104.444 58.6553V59.8271C104.444 60.6442 104.462 61.1618 104.498 61.3799C104.537 61.5947 104.612 61.8014 104.723 62H103.805C103.714 61.8177 103.655 61.6045 103.629 61.3604ZM103.556 59.3975C103.237 59.5277 102.758 59.6383 102.12 59.7295C101.759 59.7816 101.503 59.8402 101.354 59.9053C101.204 59.9704 101.088 60.0664 101.007 60.1934C100.925 60.3171 100.885 60.4554 100.885 60.6084C100.885 60.8428 100.973 61.0381 101.148 61.1943C101.327 61.3506 101.588 61.4287 101.93 61.4287C102.268 61.4287 102.569 61.3555 102.833 61.209C103.097 61.0592 103.29 60.8558 103.414 60.5986C103.508 60.4001 103.556 60.1071 103.556 59.7197V59.3975ZM105.46 60.4521L106.329 60.3154C106.378 60.6637 106.513 60.9307 106.734 61.1162C106.959 61.3018 107.271 61.3945 107.672 61.3945C108.076 61.3945 108.375 61.3132 108.57 61.1504C108.766 60.9844 108.863 60.7907 108.863 60.5693C108.863 60.3708 108.777 60.2145 108.604 60.1006C108.484 60.0225 108.185 59.9232 107.706 59.8027C107.062 59.64 106.614 59.5 106.363 59.3828C106.116 59.2624 105.927 59.098 105.797 58.8896C105.67 58.6781 105.606 58.4453 105.606 58.1914C105.606 57.9603 105.659 57.7471 105.763 57.5518C105.87 57.3532 106.015 57.1888 106.197 57.0586C106.334 56.9577 106.52 56.873 106.754 56.8047C106.992 56.7331 107.245 56.6973 107.516 56.6973C107.923 56.6973 108.279 56.7559 108.585 56.873C108.894 56.9902 109.122 57.1497 109.269 57.3516C109.415 57.5501 109.516 57.8171 109.571 58.1523L108.712 58.2695C108.673 58.0026 108.559 57.7943 108.37 57.6445C108.185 57.4948 107.921 57.4199 107.579 57.4199C107.175 57.4199 106.887 57.4867 106.715 57.6201C106.542 57.7536 106.456 57.9098 106.456 58.0889C106.456 58.2028 106.492 58.3053 106.563 58.3965C106.635 58.4909 106.747 58.569 106.9 58.6309C106.988 58.6634 107.247 58.7383 107.677 58.8555C108.299 59.0215 108.731 59.1582 108.976 59.2656C109.223 59.3698 109.417 59.5228 109.557 59.7246C109.697 59.9264 109.767 60.1771 109.767 60.4766C109.767 60.7695 109.68 61.0462 109.508 61.3066C109.339 61.5638 109.093 61.764 108.771 61.9072C108.448 62.0472 108.084 62.1172 107.677 62.1172C107.003 62.1172 106.489 61.9772 106.134 61.6973C105.782 61.4173 105.558 61.0023 105.46 60.4521ZM110.812 62V54.8418H111.69V57.4102C112.101 56.9349 112.618 56.6973 113.243 56.6973C113.627 56.6973 113.961 56.7738 114.244 56.9268C114.527 57.0765 114.729 57.2848 114.85 57.5518C114.973 57.8187 115.035 58.2061 115.035 58.7139V62H114.156V58.7139C114.156 58.2744 114.06 57.9554 113.868 57.7568C113.679 57.555 113.411 57.4541 113.062 57.4541C112.802 57.4541 112.556 57.5225 112.325 57.6592C112.097 57.7926 111.935 57.9749 111.837 58.2061C111.739 58.4372 111.69 58.7562 111.69 59.1631V62H110.812ZM116.383 55.8525V54.8418H117.262V55.8525H116.383ZM116.383 62V56.8145H117.262V62H116.383ZM118.604 62V56.8145H119.396V57.5518C119.776 56.9821 120.326 56.6973 121.046 56.6973C121.358 56.6973 121.645 56.7542 121.905 56.8682C122.169 56.9788 122.366 57.1253 122.496 57.3076C122.626 57.4899 122.717 57.7064 122.77 57.957C122.802 58.1198 122.818 58.4046 122.818 58.8115V62H121.939V58.8457C121.939 58.4876 121.905 58.2207 121.837 58.0449C121.769 57.8659 121.646 57.7243 121.471 57.6201C121.298 57.5127 121.095 57.459 120.86 57.459C120.486 57.459 120.162 57.5778 119.889 57.8154C119.618 58.0531 119.483 58.5039 119.483 59.168V62H118.604ZM124.01 62.4297L124.864 62.5566C124.9 62.8203 124.999 63.0124 125.162 63.1328C125.38 63.2956 125.678 63.377 126.056 63.377C126.463 63.377 126.777 63.2956 126.998 63.1328C127.219 62.9701 127.369 62.7422 127.447 62.4492C127.493 62.2702 127.514 61.8942 127.511 61.3213C127.127 61.7738 126.648 62 126.075 62C125.362 62 124.811 61.7428 124.42 61.2285C124.029 60.7142 123.834 60.0973 123.834 59.3779C123.834 58.8831 123.924 58.4274 124.103 58.0107C124.282 57.5908 124.54 57.2669 124.879 57.0391C125.221 56.8112 125.621 56.6973 126.08 56.6973C126.692 56.6973 127.197 56.9447 127.594 57.4395V56.8145H128.404V61.2969C128.404 62.1042 128.321 62.6755 128.155 63.0107C127.993 63.3493 127.732 63.6162 127.374 63.8115C127.019 64.0068 126.581 64.1045 126.061 64.1045C125.442 64.1045 124.942 63.9645 124.562 63.6846C124.181 63.4079 123.997 62.9896 124.01 62.4297ZM124.737 59.3145C124.737 59.9948 124.872 60.4912 125.143 60.8037C125.413 61.1162 125.751 61.2725 126.158 61.2725C126.562 61.2725 126.9 61.1178 127.174 60.8086C127.447 60.4961 127.584 60.0078 127.584 59.3438C127.584 58.709 127.442 58.2305 127.159 57.9082C126.879 57.5859 126.541 57.4248 126.144 57.4248C125.753 57.4248 125.421 57.5843 125.147 57.9033C124.874 58.2191 124.737 58.6895 124.737 59.3145ZM134.439 61.2139L134.566 61.9902C134.319 62.0423 134.098 62.0684 133.902 62.0684C133.583 62.0684 133.336 62.0179 133.16 61.917C132.984 61.8161 132.861 61.6842 132.789 61.5215C132.717 61.3555 132.682 61.0088 132.682 60.4814V57.498H132.037V56.8145H132.682V55.5303L133.556 55.0029V56.8145H134.439V57.498H133.556V60.5303C133.556 60.7809 133.57 60.9421 133.6 61.0137C133.632 61.0853 133.683 61.1423 133.751 61.1846C133.823 61.2269 133.924 61.248 134.054 61.248C134.151 61.248 134.28 61.2367 134.439 61.2139ZM135.304 62V54.8418H136.183V57.4102C136.593 56.9349 137.11 56.6973 137.735 56.6973C138.119 56.6973 138.453 56.7738 138.736 56.9268C139.02 57.0765 139.221 57.2848 139.342 57.5518C139.465 57.8187 139.527 58.2061 139.527 58.7139V62H138.648V58.7139C138.648 58.2744 138.552 57.9554 138.36 57.7568C138.172 57.555 137.903 57.4541 137.555 57.4541C137.294 57.4541 137.049 57.5225 136.817 57.6592C136.59 57.7926 136.427 57.9749 136.329 58.2061C136.231 58.4372 136.183 58.7562 136.183 59.1631V62H135.304ZM144.42 60.3301L145.328 60.4424C145.185 60.973 144.92 61.3848 144.532 61.6777C144.145 61.9707 143.65 62.1172 143.048 62.1172C142.289 62.1172 141.687 61.8844 141.241 61.4189C140.799 60.9502 140.577 60.2943 140.577 59.4512C140.577 58.5788 140.802 57.9017 141.251 57.4199C141.7 56.9382 142.283 56.6973 142.999 56.6973C143.692 56.6973 144.259 56.9333 144.698 57.4053C145.138 57.8773 145.357 58.5413 145.357 59.3975C145.357 59.4495 145.356 59.5277 145.353 59.6318H141.485C141.518 60.2015 141.679 60.6377 141.969 60.9404C142.258 61.2432 142.62 61.3945 143.053 61.3945C143.375 61.3945 143.65 61.3099 143.878 61.1406C144.106 60.9714 144.286 60.7012 144.42 60.3301ZM141.534 58.9092H144.43C144.391 58.473 144.28 58.1458 144.098 57.9277C143.818 57.5892 143.455 57.4199 143.009 57.4199C142.605 57.4199 142.265 57.555 141.988 57.8252C141.715 58.0954 141.563 58.4567 141.534 58.9092ZM149.332 62V54.8418H152.032C152.507 54.8418 152.87 54.8646 153.121 54.9102C153.473 54.9688 153.767 55.0811 154.005 55.2471C154.243 55.4098 154.433 55.6393 154.576 55.9355C154.723 56.2318 154.796 56.5573 154.796 56.9121C154.796 57.5208 154.602 58.0368 154.215 58.46C153.827 58.8799 153.128 59.0898 152.115 59.0898H150.279V62H149.332ZM150.279 58.2451H152.13C152.742 58.2451 153.176 58.1312 153.434 57.9033C153.691 57.6755 153.819 57.3548 153.819 56.9414C153.819 56.6419 153.743 56.3864 153.59 56.1748C153.44 55.96 153.242 55.8184 152.994 55.75C152.835 55.7077 152.54 55.6865 152.11 55.6865H150.279V58.2451ZM155.562 59.4072C155.562 58.4469 155.829 57.7357 156.363 57.2734C156.809 56.8893 157.353 56.6973 157.994 56.6973C158.707 56.6973 159.29 56.9316 159.742 57.4004C160.195 57.8659 160.421 58.5104 160.421 59.334C160.421 60.0013 160.32 60.527 160.118 60.9111C159.92 61.292 159.628 61.5882 159.244 61.7998C158.863 62.0114 158.447 62.1172 157.994 62.1172C157.268 62.1172 156.681 61.8844 156.231 61.4189C155.785 60.9535 155.562 60.2829 155.562 59.4072ZM156.466 59.4072C156.466 60.0713 156.611 60.5693 156.9 60.9014C157.19 61.2301 157.555 61.3945 157.994 61.3945C158.43 61.3945 158.793 61.2285 159.083 60.8965C159.373 60.5645 159.518 60.0583 159.518 59.3779C159.518 58.7367 159.371 58.2516 159.078 57.9229C158.788 57.5908 158.427 57.4248 157.994 57.4248C157.555 57.4248 157.19 57.5892 156.9 57.918C156.611 58.2467 156.466 58.7432 156.466 59.4072ZM163.375 61.2139L163.502 61.9902C163.255 62.0423 163.033 62.0684 162.838 62.0684C162.519 62.0684 162.271 62.0179 162.096 61.917C161.92 61.8161 161.796 61.6842 161.725 61.5215C161.653 61.3555 161.617 61.0088 161.617 60.4814V57.498H160.973V56.8145H161.617V55.5303L162.491 55.0029V56.8145H163.375V57.498H162.491V60.5303C162.491 60.7809 162.506 60.9421 162.535 61.0137C162.568 61.0853 162.618 61.1423 162.687 61.1846C162.758 61.2269 162.859 61.248 162.989 61.248C163.087 61.248 163.215 61.2367 163.375 61.2139ZM167.789 60.3301L168.697 60.4424C168.554 60.973 168.289 61.3848 167.901 61.6777C167.514 61.9707 167.019 62.1172 166.417 62.1172C165.659 62.1172 165.056 61.8844 164.61 61.4189C164.168 60.9502 163.946 60.2943 163.946 59.4512C163.946 58.5788 164.171 57.9017 164.62 57.4199C165.069 56.9382 165.652 56.6973 166.368 56.6973C167.062 56.6973 167.628 56.9333 168.067 57.4053C168.507 57.8773 168.727 58.5413 168.727 59.3975C168.727 59.4495 168.725 59.5277 168.722 59.6318H164.854C164.887 60.2015 165.048 60.6377 165.338 60.9404C165.628 61.2432 165.989 61.3945 166.422 61.3945C166.744 61.3945 167.019 61.3099 167.247 61.1406C167.475 60.9714 167.656 60.7012 167.789 60.3301ZM164.903 58.9092H167.799C167.76 58.473 167.649 58.1458 167.467 57.9277C167.187 57.5892 166.824 57.4199 166.378 57.4199C165.974 57.4199 165.634 57.555 165.357 57.8252C165.084 58.0954 164.933 58.4567 164.903 58.9092ZM169.806 62V56.8145H170.597V57.5518C170.978 56.9821 171.528 56.6973 172.247 56.6973C172.56 56.6973 172.846 56.7542 173.106 56.8682C173.37 56.9788 173.567 57.1253 173.697 57.3076C173.827 57.4899 173.919 57.7064 173.971 57.957C174.003 58.1198 174.02 58.4046 174.02 58.8115V62H173.141V58.8457C173.141 58.4876 173.106 58.2207 173.038 58.0449C172.97 57.8659 172.848 57.7243 172.672 57.6201C172.499 57.5127 172.296 57.459 172.062 57.459C171.687 57.459 171.363 57.5778 171.09 57.8154C170.82 58.0531 170.685 58.5039 170.685 59.168V62H169.806ZM177.291 61.2139L177.418 61.9902C177.171 62.0423 176.949 62.0684 176.754 62.0684C176.435 62.0684 176.188 62.0179 176.012 61.917C175.836 61.8161 175.712 61.6842 175.641 61.5215C175.569 61.3555 175.533 61.0088 175.533 60.4814V57.498H174.889V56.8145H175.533V55.5303L176.407 55.0029V56.8145H177.291V57.498H176.407V60.5303C176.407 60.7809 176.422 60.9421 176.451 61.0137C176.484 61.0853 176.534 61.1423 176.603 61.1846C176.674 61.2269 176.775 61.248 176.905 61.248C177.003 61.248 177.132 61.2367 177.291 61.2139ZM178.16 55.8525V54.8418H179.039V55.8525H178.16ZM178.16 62V56.8145H179.039V62H178.16ZM183.766 61.3604C183.44 61.637 183.126 61.8324 182.823 61.9463C182.524 62.0602 182.201 62.1172 181.856 62.1172C181.287 62.1172 180.849 61.9788 180.543 61.7021C180.237 61.4222 180.084 61.0658 180.084 60.6328C180.084 60.3789 180.141 60.1478 180.255 59.9395C180.372 59.7279 180.523 59.5586 180.709 59.4316C180.898 59.3047 181.109 59.2087 181.344 59.1436C181.516 59.098 181.777 59.054 182.125 59.0117C182.835 58.9271 183.357 58.8262 183.692 58.709C183.696 58.5885 183.697 58.512 183.697 58.4795C183.697 58.1214 183.614 57.8691 183.448 57.7227C183.224 57.5241 182.89 57.4248 182.447 57.4248C182.034 57.4248 181.728 57.498 181.529 57.6445C181.334 57.7878 181.189 58.0433 181.095 58.4111L180.235 58.2939C180.313 57.9261 180.442 57.6299 180.621 57.4053C180.8 57.1774 181.059 57.0033 181.397 56.8828C181.736 56.7591 182.128 56.6973 182.574 56.6973C183.017 56.6973 183.377 56.7493 183.653 56.8535C183.93 56.9577 184.133 57.0895 184.264 57.249C184.394 57.4053 184.485 57.6038 184.537 57.8447C184.566 57.9945 184.581 58.2646 184.581 58.6553V59.8271C184.581 60.6442 184.599 61.1618 184.635 61.3799C184.674 61.5947 184.749 61.8014 184.859 62H183.941C183.85 61.8177 183.792 61.6045 183.766 61.3604ZM183.692 59.3975C183.373 59.5277 182.895 59.6383 182.257 59.7295C181.896 59.7816 181.64 59.8402 181.49 59.9053C181.34 59.9704 181.225 60.0664 181.144 60.1934C181.062 60.3171 181.021 60.4554 181.021 60.6084C181.021 60.8428 181.109 61.0381 181.285 61.1943C181.464 61.3506 181.725 61.4287 182.066 61.4287C182.405 61.4287 182.706 61.3555 182.97 61.209C183.233 61.0592 183.427 60.8558 183.551 60.5986C183.645 60.4001 183.692 60.1071 183.692 59.7197V59.3975ZM185.929 62V54.8418H186.808V62H185.929ZM190.631 59.4072C190.631 58.4469 190.898 57.7357 191.432 57.2734C191.878 56.8893 192.421 56.6973 193.062 56.6973C193.775 56.6973 194.358 56.9316 194.811 57.4004C195.263 57.8659 195.489 58.5104 195.489 59.334C195.489 60.0013 195.388 60.527 195.187 60.9111C194.988 61.292 194.697 61.5882 194.312 61.7998C193.932 62.0114 193.515 62.1172 193.062 62.1172C192.337 62.1172 191.749 61.8844 191.3 61.4189C190.854 60.9535 190.631 60.2829 190.631 59.4072ZM191.534 59.4072C191.534 60.0713 191.679 60.5693 191.969 60.9014C192.258 61.2301 192.623 61.3945 193.062 61.3945C193.499 61.3945 193.862 61.2285 194.151 60.8965C194.441 60.5645 194.586 60.0583 194.586 59.3779C194.586 58.7367 194.439 58.2516 194.146 57.9229C193.857 57.5908 193.495 57.4248 193.062 57.4248C192.623 57.4248 192.258 57.5892 191.969 57.918C191.679 58.2467 191.534 58.7432 191.534 59.4072ZM196.734 62V57.498H195.958V56.8145H196.734V56.2627C196.734 55.9144 196.765 55.6556 196.827 55.4863C196.912 55.2585 197.06 55.0745 197.271 54.9346C197.486 54.7913 197.786 54.7197 198.17 54.7197C198.417 54.7197 198.691 54.749 198.99 54.8076L198.858 55.5742C198.676 55.5417 198.504 55.5254 198.341 55.5254C198.074 55.5254 197.885 55.5824 197.774 55.6963C197.664 55.8102 197.608 56.0234 197.608 56.3359V56.8145H198.619V57.498H197.608V62H196.734ZM203.839 62V55.6865H201.48V54.8418H207.154V55.6865H204.786V62H203.839ZM210.455 60.3301L211.363 60.4424C211.22 60.973 210.955 61.3848 210.567 61.6777C210.18 61.9707 209.685 62.1172 209.083 62.1172C208.325 62.1172 207.722 61.8844 207.276 61.4189C206.834 60.9502 206.612 60.2943 206.612 59.4512C206.612 58.5788 206.837 57.9017 207.286 57.4199C207.735 56.9382 208.318 56.6973 209.034 56.6973C209.728 56.6973 210.294 56.9333 210.733 57.4053C211.173 57.8773 211.393 58.5413 211.393 59.3975C211.393 59.4495 211.391 59.5277 211.388 59.6318H207.521C207.553 60.2015 207.714 60.6377 208.004 60.9404C208.294 61.2432 208.655 61.3945 209.088 61.3945C209.41 61.3945 209.685 61.3099 209.913 61.1406C210.141 60.9714 210.322 60.7012 210.455 60.3301ZM207.569 58.9092H210.465C210.426 58.473 210.315 58.1458 210.133 57.9277C209.853 57.5892 209.49 57.4199 209.044 57.4199C208.64 57.4199 208.3 57.555 208.023 57.8252C207.75 58.0954 207.599 58.4567 207.569 58.9092ZM215.855 60.1006L216.72 60.2129C216.625 60.8086 216.383 61.2757 215.992 61.6143C215.605 61.9495 215.128 62.1172 214.562 62.1172C213.852 62.1172 213.281 61.8861 212.848 61.4238C212.418 60.9583 212.203 60.2926 212.203 59.4268C212.203 58.8669 212.296 58.377 212.481 57.957C212.667 57.5371 212.949 57.223 213.326 57.0146C213.707 56.8031 214.12 56.6973 214.566 56.6973C215.13 56.6973 215.59 56.8405 215.948 57.127C216.306 57.4102 216.536 57.8138 216.637 58.3379L215.782 58.4697C215.701 58.1214 215.556 57.8594 215.348 57.6836C215.143 57.5078 214.894 57.4199 214.601 57.4199C214.158 57.4199 213.798 57.5794 213.521 57.8984C213.245 58.2142 213.106 58.7155 213.106 59.4023C213.106 60.099 213.24 60.6051 213.507 60.9209C213.774 61.2367 214.122 61.3945 214.552 61.3945C214.897 61.3945 215.185 61.2887 215.416 61.0771C215.647 60.8656 215.794 60.54 215.855 60.1006ZM217.472 62V54.8418H218.351V57.4102C218.761 56.9349 219.278 56.6973 219.903 56.6973C220.287 56.6973 220.621 56.7738 220.904 56.9268C221.188 57.0765 221.389 57.2848 221.51 57.5518C221.633 57.8187 221.695 58.2061 221.695 58.7139V62H220.816V58.7139C220.816 58.2744 220.72 57.9554 220.528 57.7568C220.34 57.555 220.071 57.4541 219.723 57.4541C219.462 57.4541 219.216 57.5225 218.985 57.6592C218.757 57.7926 218.595 57.9749 218.497 58.2061C218.399 58.4372 218.351 58.7562 218.351 59.1631V62H217.472ZM223.038 62V56.8145H223.829V57.5518C224.21 56.9821 224.76 56.6973 225.479 56.6973C225.792 56.6973 226.078 56.7542 226.339 56.8682C226.603 56.9788 226.799 57.1253 226.93 57.3076C227.06 57.4899 227.151 57.7064 227.203 57.957C227.236 58.1198 227.252 58.4046 227.252 58.8115V62H226.373V58.8457C226.373 58.4876 226.339 58.2207 226.271 58.0449C226.202 57.8659 226.08 57.7243 225.904 57.6201C225.732 57.5127 225.528 57.459 225.294 57.459C224.92 57.459 224.596 57.5778 224.322 57.8154C224.052 58.0531 223.917 58.5039 223.917 59.168V62H223.038ZM228.277 59.4072C228.277 58.4469 228.544 57.7357 229.078 57.2734C229.524 56.8893 230.068 56.6973 230.709 56.6973C231.422 56.6973 232.005 56.9316 232.457 57.4004C232.91 57.8659 233.136 58.5104 233.136 59.334C233.136 60.0013 233.035 60.527 232.833 60.9111C232.634 61.292 232.343 61.5882 231.959 61.7998C231.578 62.0114 231.161 62.1172 230.709 62.1172C229.983 62.1172 229.396 61.8844 228.946 61.4189C228.5 60.9535 228.277 60.2829 228.277 59.4072ZM229.181 59.4072C229.181 60.0713 229.326 60.5693 229.615 60.9014C229.905 61.2301 230.27 61.3945 230.709 61.3945C231.145 61.3945 231.508 61.2285 231.798 60.8965C232.088 60.5645 232.232 60.0583 232.232 59.3779C232.232 58.7367 232.086 58.2516 231.793 57.9229C231.503 57.5908 231.142 57.4248 230.709 57.4248C230.27 57.4248 229.905 57.5892 229.615 57.918C229.326 58.2467 229.181 58.7432 229.181 59.4072ZM234.151 62V54.8418H235.03V62H234.151ZM236.07 59.4072C236.07 58.4469 236.337 57.7357 236.871 57.2734C237.317 56.8893 237.861 56.6973 238.502 56.6973C239.215 56.6973 239.798 56.9316 240.25 57.4004C240.702 57.8659 240.929 58.5104 240.929 59.334C240.929 60.0013 240.828 60.527 240.626 60.9111C240.427 61.292 240.136 61.5882 239.752 61.7998C239.371 62.0114 238.954 62.1172 238.502 62.1172C237.776 62.1172 237.188 61.8844 236.739 61.4189C236.293 60.9535 236.07 60.2829 236.07 59.4072ZM236.974 59.4072C236.974 60.0713 237.118 60.5693 237.408 60.9014C237.698 61.2301 238.062 61.3945 238.502 61.3945C238.938 61.3945 239.301 61.2285 239.591 60.8965C239.881 60.5645 240.025 60.0583 240.025 59.3779C240.025 58.7367 239.879 58.2516 239.586 57.9229C239.296 57.5908 238.935 57.4248 238.502 57.4248C238.062 57.4248 237.698 57.5892 237.408 57.918C237.118 58.2467 236.974 58.7432 236.974 59.4072ZM241.803 62.4297L242.657 62.5566C242.693 62.8203 242.792 63.0124 242.955 63.1328C243.173 63.2956 243.471 63.377 243.849 63.377C244.256 63.377 244.57 63.2956 244.791 63.1328C245.012 62.9701 245.162 62.7422 245.24 62.4492C245.286 62.2702 245.307 61.8942 245.304 61.3213C244.92 61.7738 244.441 62 243.868 62C243.155 62 242.604 61.7428 242.213 61.2285C241.822 60.7142 241.627 60.0973 241.627 59.3779C241.627 58.8831 241.716 58.4274 241.896 58.0107C242.075 57.5908 242.333 57.2669 242.672 57.0391C243.014 56.8112 243.414 56.6973 243.873 56.6973C244.485 56.6973 244.99 56.9447 245.387 57.4395V56.8145H246.197V61.2969C246.197 62.1042 246.114 62.6755 245.948 63.0107C245.785 63.3493 245.525 63.6162 245.167 63.8115C244.812 64.0068 244.374 64.1045 243.854 64.1045C243.235 64.1045 242.735 63.9645 242.354 63.6846C241.974 63.4079 241.79 62.9896 241.803 62.4297ZM242.53 59.3145C242.53 59.9948 242.665 60.4912 242.936 60.8037C243.206 61.1162 243.544 61.2725 243.951 61.2725C244.355 61.2725 244.693 61.1178 244.967 60.8086C245.24 60.4961 245.377 60.0078 245.377 59.3438C245.377 58.709 245.235 58.2305 244.952 57.9082C244.672 57.5859 244.334 57.4248 243.937 57.4248C243.546 57.4248 243.214 57.5843 242.94 57.9033C242.667 58.2191 242.53 58.6895 242.53 59.3145ZM247.491 63.9971L247.394 63.1719C247.586 63.224 247.753 63.25 247.896 63.25C248.092 63.25 248.248 63.2174 248.365 63.1523C248.482 63.0872 248.578 62.9961 248.653 62.8789C248.709 62.791 248.798 62.5729 248.922 62.2246C248.938 62.1758 248.964 62.1042 249 62.0098L247.032 56.8145H247.979L249.059 59.8174C249.199 60.1982 249.324 60.5986 249.435 61.0186C249.535 60.6149 249.656 60.221 249.796 59.8369L250.904 56.8145H251.783L249.811 62.0879C249.599 62.6576 249.435 63.0498 249.317 63.2646C249.161 63.5544 248.982 63.766 248.78 63.8994C248.578 64.0361 248.338 64.1045 248.058 64.1045C247.888 64.1045 247.7 64.0687 247.491 63.9971Z" fill="#28BE78"/>
<path d="M32 64C49.6731 64 64 49.6731 64 32C64 14.3269 49.6731 0 32 0C14.3269 0 0 14.3269 0 32C0 49.6731 14.3269 64 32 64Z" fill="#28BE78"/>
<path d="M35.7648 20.877C36.4263 20.877 36.9626 20.3407 36.9626 19.6791C36.9626 19.0176 36.4263 18.4813 35.7648 18.4813C35.1032 18.4813 34.5669 19.0176 34.5669 19.6791C34.5669 20.3407 35.1032 20.877 35.7648 20.877Z" fill="#FEFEFE"/>
<path fill-rule="evenodd" clip-rule="evenodd" d="M33.0266 12.492C26.9637 12.492 24.4706 16.8029 24.4706 22.5319V42.8381C24.4706 48.5669 26.9637 52.877 33.0266 52.877C39.0895 52.877 41.5829 48.5661 41.5829 42.8381V43.6017H39.0897V43.0082C39.0897 47.2624 37.4467 50.4394 33.0835 50.4394C28.7203 50.4394 27.0773 47.2631 27.0773 43.0082V22.3616C27.0773 18.1076 28.7205 14.8744 33.0835 14.8744" fill="#FEFEFE"/>
<path fill-rule="evenodd" clip-rule="evenodd" d="M33.0426 27.7219H35.7647C35.7647 27.7219 33.3984 40.9707 17.7968 40.8981C17.7968 40.8981 31.4093 37.6041 33.0426 27.7219Z" fill="#28BE78"/>
<path fill-rule="evenodd" clip-rule="evenodd" d="M33.0426 26.6952H35.7647C35.7647 26.6952 33.3984 39.9439 17.7968 39.8714C17.7968 39.8714 31.4093 36.5774 33.0426 26.6952Z" fill="#FEFEFE"/>
</svg>
